/* XPM */
static char *_1755_970ffae58f3a22ceada85ba7d118523f4b3ef3774126c6c9b85210154fe15dca[] = {
/* columns rows colors chars-per-pixel */
"16 16 2 1 ",
"  c #F39800",
". c None",
/* pixels */
"................",
".....       ....",
"....         ...",
"..   .......  ..",
"..  .... ....  .",
".. ...    ....  ",
".......    ...  ",
".  .... ..  ..  ",
"   ....    ...  ",
"   ...  .. ...  ",
".  ..      ...  ",
".  ...    ...   ",
"..  .........  .",
"...  ......   ..",
"....         ...",
".....       ...."
};
