/* XPM */
static char *_2111_2b0200b69bcc054d6cf5c48514f469cdf9e33660a4c977a330dce0e58ce30638[] = {
/* columns rows colors chars-per-pixel */
"128 128 2 1 ",
"  c #F39800",
". c None",
/* pixels */
"................................................................................................................................",
"................................................................................................................................",
"................................................................................................................................",
"................................................................................................................................",
"................................................................................................................................",
"................................................................................................................................",
"........................................................                 .......................................................",
"...................................................                           ..................................................",
"................................................                                  ..............................................",
".............................................                                        ...........................................",
"..........................................                                              ........................................",
"........................................                                                  ......................................",
"......................................                                                      ....................................",
"....................................                                                          ..................................",
"..................................                                                             .................................",
".................................                                                                ...............................",
"...............................                                                                   ..............................",
"..............................                            ..............                            ............................",
".............................                        ........................                        ...........................",
"...........................                      ...............................                      ..........................",
"..........................                     ....................................                    .........................",
".........................                    ........................................                    .......................",
"........................                   ............................................                   ......................",
".......................                  ................................................                  .....................",
"......................                 ....................................................                 ....................",
".....................                 ......................................................                ....................",
"....................                .........................................................                ...................",
"...................                ............................................................               ..................",
"...................               ..............................................................               .................",
"..................               ................................................................               ................",
".................               ................................  ................................              ................",
".................              .................................      .............................              ...............",
"................              ..................................      ..............................              ..............",
"...............              ..................................       ....    .......................             ..............",
"...............             ...................................       ....      ......................             .............",
"..............             ....................................      ....       ......................              ............",
"..............             ....................................      ....      ........................             ............",
"..............            ........................    ........       ....      .........................             ...........",
"..............           .........................        ....      .....      .........................             ...........",
"..............          .........................                   ....       ..........................             ..........",
"...............         .........................                   ....      ............................            ..........",
"...............        ..........................                     ..      ............................             .........",
".................    ............................                             .............................            .........",
"...................................................                           .............................            .........",
"......................................................                          ............................            ........",
".......................................................                           ..........................            ........",
".......................................................                            ..........................           ........",
".......................................................                              ........................            .......",
".......................................................           ...                 .......................            .......",
"......................................................            .......              .......................           .......",
"..........   .........................................            .........             ......................           .......",
".........     ........................................           ............           ......................            ......",
".........     ........................................           ............            ......................           ......",
"........       ......................................            .............           ......................           ......",
"........        .....................................            .............           ......................           ......",
".......          ....................................           ..............           ......................           ......",
".......           ...................................           ..............           ......................            .....",
"......            ..................................            .............            .......................           .....",
"......             .................................            .............            .......................           .....",
".....               ................................             ...........             .......................           .....",
".....                ...............................                 .....              ........................           .....",
"....                  .............................                                     ........................           .....",
"....                  .............................                                    .........................           .....",
"...                    ............................                                   ..........................           .....",
"...                     ...........................                                 ............................           .....",
"..                       .........................                                 .............................           .....",
".                         ........................            ...                  .............................           .....",
".                         ........................           ........                ...........................           .....",
"                          ........................           ...........              ..........................           .....",
"                         ........................            .............            ..........................           .....",
"                  ...............................           ...............            .........................           .....",
".                 ...............................           ................           ........................            .....",
".......           ...............................           ................            .......................           ......",
".......            .............................            ................            .......................           ......",
"........           ......................  .....           .................            .......................           ......",
"........           ......................                  .................            .......................           ......",
"........           .....................                   ................             ......................            ......",
"........            ....................                   ................             ......................            ......",
"........            ....................                      ............             .......................           .......",
".........           ....................                          ......               ......................            .......",
".........            ...................                                               ......................            .......",
".........            .......................                                          .......................           ........",
"..........           ...........................                                      ......................            ........",
"..........            .............................                                  .......................            ........",
"..........            ............................                                  .......................            .........",
"...........            ...........................       ..                        ........................            .........",
"...........            ...........................      ....                      ........................             .........",
"............            ..........................      ....                    ..........................            ..........",
"............             ........................       ....      .......  ..............................             ..........",
"............             ........................       ....      .......................................            ...........",
".............             .......................      ....       ......................................             ...........",
".............              ......................      ....       .....................................             ............",
"..............             .....................       ....      .....................................              ............",
"...............             .......................    ....      .....................................             .............",
"...............              .............................       ....................................             ..............",
"................              .............................      ...................................              ..............",
".................              ................................ ...................................              ...............",
".................               ..................................................................              ................",
"..................               ................................................................               ................",
"...................               ..............................................................               .................",
"...................                ...........................................................                ..................",
"....................                .........................................................                ...................",
".....................                 ......................................................                ....................",
"......................                 ...................................................                  ....................",
".......................                  ................................................                  .....................",
"........................                  .............................................                   ......................",
".........................                    ........................................                    .......................",
"..........................                     ....................................                    .........................",
"...........................                       ..............................                      ..........................",
".............................                        ........................                        ...........................",
"..............................                             .............                            ............................",
"...............................                                                                   ..............................",
".................................                                                                ...............................",
"..................................                                                             .................................",
"....................................                                                          ..................................",
"......................................                                                      ....................................",
"........................................                                                  ......................................",
"..........................................                                             .........................................",
".............................................                                        ...........................................",
"................................................                                  ..............................................",
"....................................................                          ..................................................",
".........................................................               ........................................................",
"................................................................................................................................",
"................................................................................................................................",
"................................................................................................................................",
"................................................................................................................................",
"................................................................................................................................",
"................................................................................................................................"
};
