/* XPM */
static char *_459_3eb777beb68262c8a368c599845a3e23c95354c9b916acdf2f83c5ace9d56f9c[] = {
/* columns rows colors chars-per-pixel */
"32 32 2 1 ",
"  c #F39800",
". c None",
/* pixels */
"................................",
"................................",
"............         ...........",
".........              .........",
"........                 .......",
".......     ........      ......",
".....     ............     .....",
".....    ...............    ....",
"....    ........ ........    ...",
"...    ......... .  ......   ...",
"....  ......     .  ......    ..",
".............       .......   ..",
"..............        .....    .",
"..  ..........  ...   ......   .",
"..   ........   ....   .....   .",
".    ........    ..   ......   .",
".     .......        .......   .",
"      .......  ...   .......   .",
"     .......   ....   ......   .",
"..   .....     ....   ......   .",
"..   .....            .....    .",
"..    .......        ......   ..",
"...   ......  .     ......    ..",
"...    .....  .  .........   ...",
"....    ....... .........    ...",
".....    ...............    ....",
"......    ............     .....",
".......      .......      ......",
"........                 .......",
"..........             .........",
"............        ............",
"................................"
};
