/* XPM */
static char *_1823_879d4898732a8c851c750d00a24f113ca8d799965e2519b2cfd68744a5a57c24[] = {
/* columns rows colors chars-per-pixel */
"64 64 2 1 ",
"  c #F39800",
". c None",
/* pixels */
"................................................................",
"................................................................",
"................................................................",
"..........................             .........................",
".......................                   ......................",
"....................                         ...................",
"..................                             .................",
".................                                ...............",
"...............                                   ..............",
"..............            ..............           .............",
".............          ...................           ...........",
"............         .......................          ..........",
"...........        ...........................         .........",
"..........        .............................        .........",
".........        ...............................        ........",
"........        ................  ................       .......",
"........       .................   ...............        ......",
".......       ..................   ..   ...........       ......",
".......      ............ .....    ..   ............       .....",
".......      ............     .   ...   .............      .....",
"........    .............          .    .............       ....",
"......... ...............              ...............      ....",
"............................             .............      ....",
"............................              .............      ...",
"...........................      ...        ...........      ...",
".....  ....................      .....      ............     ...",
"....    ...................      ......      ...........     ...",
"....    ...................     .......      ...........      ..",
"...      .................      .......      ...........      ..",
"...       ................      ......       ...........      ..",
"..         ...............                  ............      ..",
"..          ..............                 .............      ..",
".           .............                 ..............      ..",
".            ............      ...        ..............      ..",
"             ............      ......      .............      ..",
"         ................     ........      ............      ..",
"....     ...............      ........      ............      ..",
"....      ...........  .      ........      ............      ..",
"....      ..........          ........      ............     ...",
"....      ..........            .....       ...........      ...",
".....      ..........                       ...........      ...",
".....      ..............                  ...........      ....",
".....      ..............                 ............      ....",
"......      .............   ..           ............       ....",
"......       ............   ..   ....................      .....",
".......      ............   ..   ...................       .....",
".......       ...........   ..   ..................       ......",
"........       ...............   .................        ......",
"........        .................................        .......",
".........        ...............................        ........",
"..........        .............................        .........",
"...........         ..........................        ..........",
"............         .......................          ..........",
".............          ...................          ............",
"..............            .............            .............",
"...............                                   ..............",
".................                               ................",
"...................                            .................",
".....................                        ...................",
".......................                   ......................",
"...........................           ..........................",
"................................................................",
"................................................................",
"................................................................"
};
