<?xml version="1.0" encoding="utf-8"?>
<!-- Generator: Adobe Illustrator 22.1.0, SVG Export Plug-In . SVG Version: 6.00 Build 0)  -->
<svg version="1.1"
	 id="svg2" inkscape:version="0.48.2 r9819" sodipodi:docname="bitcoin-logo-noshadow.svg" xmlns:cc="http://creativecommons.org/ns#" xmlns:dc="http://purl.org/dc/elements/1.1/" xmlns:inkscape="http://www.inkscape.org/namespaces/inkscape" xmlns:rdf="http://www.w3.org/1999/02/22-rdf-syntax-ns#" xmlns:sodipodi="http://sodipodi.sourceforge.net/DTD/sodipodi-0.dtd" xmlns:svg="http://www.w3.org/2000/svg"
	 xmlns="http://www.w3.org/2000/svg" xmlns:xlink="http://www.w3.org/1999/xlink" x="0px" y="0px" viewBox="0 0 1024 1024"
	 style="enable-background:new 0 0 1024 1024;" xml:space="preserve">
<style type="text/css">
	.st0{fill:#F29600;}
</style>
<g>
	<g>
		<path class="st0" d="M784,242.3c-70.8-69.7-159.7-107-262.6-108c-88.2-0.9-168,26.4-237.6,81.5c-37.4,29.6-67.9,65.1-93,105.5
			c-9.9,15.9-27.5,20.7-41.3,12c-14.6-9.1-18.8-26-9.3-42.1c25.1-42.3,55.9-79.8,93.7-111.6c39.6-33.4,83.2-59.6,131.8-77.3
			c90.2-32.8,181.5-36.4,273.9-10.4c80.3,22.6,148.8,65,204.5,126.8c66.9,74.2,104.7,161.7,112.1,261.6c8,108.5-19.9,207.4-84.5,295
			c-56.7,76.8-131.2,129.5-222.6,157.8c-89.3,27.6-178.5,26.5-267.3-1.9C327.9,914,279.3,886.8,236,850
			C148.9,775.8,98.7,681.6,83.6,568.5c-1.2-8.6-4.3-10.7-12.5-9.3c-11.1,1.9-22.4,2.7-33.6,3.8c-2.9,0.3-6.7,2-8.4-1.4
			c-1.3-2.5,0.9-5.2,2.2-7.6c17-32.4,34-64.7,50.9-97.1c5.2-10,10.3-20,15.7-29.9c5.8-10.7,6.4-11,14.4-1.2
			c16.4,20.1,32.4,40.5,48.4,60.9c12.9,16.3,25.7,32.8,38.5,49.2c1.6,2.1,4.6,3.9,3.7,6.9c-1,3.9-5,3.1-7.8,3.4
			c-14.9,1.8-29.9,3.6-44.8,4.7c-7,0.5-9.4,2.6-8.4,10c8.7,64.2,30.8,123.2,69.3,175.4c64.2,87.1,150,139.6,257.3,153.7
			c105.6,13.9,201.8-11.8,285.3-78.5c91.7-73.3,140.2-169.5,144-287c3-91.5-24.7-173.5-81.1-245.8
			C807.5,266.8,796.8,256.4,784,242.3z"/>
	</g>
	<g>
		<path class="st0" d="M784,231.1c-70.8-69.7-159.7-107-262.6-108c-88.2-0.9-168,26.4-237.6,81.5c-37.4,29.6-67.9,65.1-93,105.5
			c-9.9,15.9-27.5,20.7-41.3,12c-14.6-9.1-18.8-26-9.3-42.1c25.1-42.3,55.9-79.8,93.7-111.6c39.6-33.4,83.2-59.6,131.8-77.3
			c90.2-32.8,181.5-36.4,273.9-10.4c80.3,22.6,148.8,65,204.5,126.8c66.9,74.2,104.7,161.7,112.1,261.6c8,108.5-19.9,207.4-84.5,295
			c-56.7,76.8-131.2,129.5-222.6,157.8c-89.3,27.6-178.5,26.5-267.3-1.9c-53.9-17.2-102.6-44.4-145.8-81.2
			C148.9,764.5,98.7,670.4,83.6,557.3c-1.2-8.6-4.3-10.7-12.5-9.3c-11.1,1.9-22.4,2.7-33.6,3.8c-2.9,0.3-6.7,2-8.4-1.4
			c-1.3-2.5,0.9-5.2,2.2-7.6c17-32.4,34-64.7,50.9-97.1c5.2-10,10.3-20,15.7-29.9c5.8-10.7,6.4-11,14.4-1.2
			c16.4,20.1,32.4,40.5,48.4,60.9c12.9,16.3,25.7,32.8,38.5,49.2c1.6,2.1,4.6,3.9,3.7,6.9c-1,3.9-5,3.1-7.8,3.4
			c-14.9,1.8-29.9,3.6-44.8,4.7c-7,0.5-9.4,2.6-8.4,10c8.7,64.2,30.8,123.2,69.3,175.4c64.2,87.1,150,139.6,257.3,153.7
			c105.6,13.9,201.8-11.8,285.3-78.5c91.7-73.3,140.2-169.5,144-287c3-91.5-24.7-173.5-81.1-245.8
			C807.5,255.6,796.8,245.2,784,231.1z"/>
	</g>
	<g>
		<g>
			<path class="st0" d="M784,242.3c-70.8-69.7-159.7-107-262.6-108c-88.2-0.9-168,26.4-237.6,81.5c-37.4,29.6-67.9,65.1-93,105.5
				c-9.9,15.9-27.5,20.7-41.3,12c-14.6-9.1-18.8-26-9.3-42.1c25.1-42.3,55.9-79.8,93.7-111.6c39.6-33.4,83.2-59.6,131.8-77.3
				c90.2-32.8,181.5-36.4,273.9-10.4c80.3,22.6,148.8,65,204.5,126.8c66.9,74.2,104.7,161.7,112.1,261.6
				c8,108.5-19.9,207.4-84.5,295c-56.7,76.8-131.2,129.5-222.6,157.8c-89.3,27.6-178.5,26.5-267.3-1.9
				C327.9,914,279.3,886.8,236,850C148.9,775.8,98.7,681.6,83.6,568.5c-1.2-8.6-4.3-10.7-12.5-9.3c-11.1,1.9-22.4,2.7-33.6,3.8
				c-2.9,0.3-6.7,2-8.4-1.4c-1.3-2.5,0.9-5.2,2.2-7.6c17-32.4,34-64.7,50.9-97.1c5.2-10,10.3-20,15.7-29.9c5.8-10.7,6.4-11,14.4-1.2
				c16.4,20.1,32.4,40.5,48.4,60.9c12.9,16.3,25.7,32.8,38.5,49.2c1.6,2.1,4.6,3.9,3.7,6.9c-1,3.9-5,3.1-7.8,3.4
				c-14.9,1.8-29.9,3.6-44.8,4.7c-7,0.5-9.4,2.6-8.4,10c8.7,64.2,30.8,123.2,69.3,175.4c64.2,87.1,150,139.6,257.3,153.7
				c105.6,13.9,201.8-11.8,285.3-78.5c91.7-73.3,140.2-169.5,144-287c3-91.5-24.7-173.5-81.1-245.8
				C807.5,266.8,796.8,256.4,784,242.3z"/>
			<path class="st0" d="M518.9,966c-47,0-94.1-7.5-141-22.5c-55.2-17.6-105.7-45.8-150.2-83.7C139.8,784.8,87.1,688.1,71.1,572.3
				c-8.3,1.3-16.6,2.1-24.7,2.8l-7.7,0.7c-12.7,2.4-18.4-3.1-21.1-8.2c-4.4-8.3,0-15.9,1.6-18.7l56.4-107.5
				c3.6-6.9,7.1-13.7,10.8-20.5c3.8-7,7.7-14.1,16.5-15c8.9-0.8,14.1,5.6,19.2,11.8c13.3,16.3,26.4,32.9,39.5,49.5l9.1,11.6
				c9.8,12.4,19.5,24.9,29.3,37.3l9.3,11.9c2.5,2.5,8.6,8.8,6,18.2c-1.5,5.6-5.8,12.3-18,12.8l-5.9,0.7c-11.8,1.4-24,2.8-36.1,3.9
				c9.2,62.9,31.5,118.2,66.2,165.3c62.8,85.2,146.5,135.2,248.7,148.6c103,13.5,195.7-11.9,275.6-75.8
				c88.7-70.8,135.5-164.1,139.2-277.4c2.9-87.2-23.5-167.1-78.3-237.5c-5.8-7.5-12.4-14.4-19.9-22.4c-3.8-4-7.8-8.3-12.1-13
				c-69.3-68.1-154.5-103.1-253.4-104c-85.3-0.8-162.5,25.7-229.5,78.7c-34.7,27.5-65,61.9-90,102.2c-6.9,11.1-17,18.6-28.5,21.3
				c-10.5,2.4-21.3,0.6-30.6-5.2c-20.6-12.9-26.3-38-13.5-59.5c26.5-44.6,59-83.2,96.5-114.9c41.7-35.2,87.4-62,135.7-79.5
				C453.9,56.6,548.7,53,643.1,79.5c82.5,23.2,153.3,67.1,210.6,130.6c69,76.5,107.8,167.1,115.4,269.3c8.3,111.9-21,214-87,303.5
				c-58,78.7-135.1,133.3-229.1,162.4C608.6,959.1,563.8,966,518.9,966z M75.2,546c4,0,8.4,0.8,12.4,3.8c6.4,4.7,8,12,8.7,17
				c14.8,110.3,64.6,202.3,148.1,273.4c41.9,35.7,89.5,62.2,141.4,78.8c86.7,27.7,174.1,28.3,259.6,1.8
				c88.7-27.5,161.4-79,216-153.2c62.3-84.4,89.9-180.8,82-286.4c-7.1-96.4-43.8-181.8-108.8-253.9
				c-53.9-59.8-120.7-101.2-198.4-123.1C547,79.2,457.5,82.6,370.1,114.4c-45.5,16.5-88.5,41.8-127.9,75
				c-35.3,29.8-65.9,66.3-91,108.4c-5.8,9.8-3.9,19,5.1,24.6c3.5,2.2,7.3,2.8,11.1,2c4.8-1.1,9.2-4.6,12.5-9.8
				c26.6-42.9,58.8-79.5,95.9-108.8c71.8-56.8,154.3-85.3,245.7-84.3c105.9,1,197.3,38.6,271.5,111.7l0.5,0.5
				c4.2,4.6,8.2,8.9,12,12.9c7.7,8.1,14.9,15.8,21.5,24.3c58.6,75.2,86.8,160.7,83.8,254.2c-4,121.1-54.1,221-148.9,296.6
				c-85.6,68.4-184.9,95.7-295,81.2C357.5,888.4,268,835,200.9,744c-38.3-52-62.5-113-71.7-181.3c-0.4-2.7-1.4-10.7,3.8-17.2
				c5.3-6.5,13.3-7.1,16.4-7.3c10.8-0.8,21.8-2,32.7-3.3l-2.2-2.9c-9.7-12.4-19.4-24.8-29.2-37.2l-9.1-11.6
				c-11.7-14.9-23.4-29.7-35.3-44.4c-2.6,4.8-5.1,9.7-7.6,14.5l-50.3,95.8c7.1-0.7,13.9-1.4,20.6-2.5C70.7,546.3,72.9,546,75.2,546z
				 M70.4,568.2L70.4,568.2L70.4,568.2z"/>
		</g>
	</g>
	<path class="st0" d="M560.4,261.9l-18.3,72.6l30.8,7.8l18.3-72.6l45.8,11.6l-18.8,74.4c45.1,18.3,64.4,36.1,64.4,36.1
		c76.5,86.6-29.2,135.2-29.2,135.2c80.3,48,27.8,129.8,27.8,129.8c-39.1,76.2-149.1,39.5-149.1,39.5l-18.3,72.6l-45.8-11.6
		l18.6-73.5l-30.8-7.8L437,750.4l-46.7-11.8l19-75.4L321.6,641l12.2-48.4l40.2,10.1c9.8,0.5,17.3-13.4,17.3-13.4l54.3-214.9
		c1.4-9.5-11-15.6-11-15.6l-42-10.6l12.2-48.4l90.6,22.9l18.3-72.6L560.4,261.9z M529.9,386.8l-22.3,88.4l64.4,16.3
		c0,0,39,2.9,46.8-39.6c0,0,12.9-35.3-36.6-51.8L529.9,386.8z M494.8,525.4l-24.2,95.8l77.5,19.6c0,0,45.8-0.3,57.8-39.8
		c0,0,17.1-32.3-35.6-55.5L494.8,525.4z"/>
</g>
</svg>
